<?xml version="1.0" encoding="UTF-8"?>
<!--
  SquashGhostingX wooden court — synced with CourtCanvas.tsx wooden mode.
  ViewBox: 640 × 975  |  CIX/CIY=8 inset  |  PLANK_W=18  |  WSF red #CC1500
  Palette: surround #0E0B06  floorBase #E8C87C  A #F4DF9C  B #EDD38A  C #F9E9A8
  Floor colours lifted +6 L* to compensate for browser sRGB vs P3 phone display.
-->
<svg xmlns="http://www.w3.org/2000/svg" viewBox="0 0 640 975">

  <!-- ── Out-of-bounds dark surround ── -->
  <rect x="0" y="0" width="640" height="975" fill="#0E0B06"/>

  <!-- ── Base floor fill — prevents gap bleed-through between planks ── -->
  <rect x="8" y="8" width="624" height="959" fill="#E8C87C"/>

  <!-- ── Wood planks — 18px wide, 3-colour rotation (A/B/C maple variation) ── -->
  <rect x="8"   y="8" width="18" height="959" fill="#F4DF9C"/>
  <rect x="26"  y="8" width="18" height="959" fill="#EDD38A"/>
  <rect x="44"  y="8" width="18" height="959" fill="#F9E9A8"/>
  <rect x="62"  y="8" width="18" height="959" fill="#F4DF9C"/>
  <rect x="80"  y="8" width="18" height="959" fill="#EDD38A"/>
  <rect x="98"  y="8" width="18" height="959" fill="#F9E9A8"/>
  <rect x="116" y="8" width="18" height="959" fill="#F4DF9C"/>
  <rect x="134" y="8" width="18" height="959" fill="#EDD38A"/>
  <rect x="152" y="8" width="18" height="959" fill="#F9E9A8"/>
  <rect x="170" y="8" width="18" height="959" fill="#F4DF9C"/>
  <rect x="188" y="8" width="18" height="959" fill="#EDD38A"/>
  <rect x="206" y="8" width="18" height="959" fill="#F9E9A8"/>
  <rect x="224" y="8" width="18" height="959" fill="#F4DF9C"/>
  <rect x="242" y="8" width="18" height="959" fill="#EDD38A"/>
  <rect x="260" y="8" width="18" height="959" fill="#F9E9A8"/>
  <rect x="278" y="8" width="18" height="959" fill="#F4DF9C"/>
  <rect x="296" y="8" width="18" height="959" fill="#EDD38A"/>
  <rect x="314" y="8" width="18" height="959" fill="#F9E9A8"/>
  <rect x="332" y="8" width="18" height="959" fill="#F4DF9C"/>
  <rect x="350" y="8" width="18" height="959" fill="#EDD38A"/>
  <rect x="368" y="8" width="18" height="959" fill="#F9E9A8"/>
  <rect x="386" y="8" width="18" height="959" fill="#F4DF9C"/>
  <rect x="404" y="8" width="18" height="959" fill="#EDD38A"/>
  <rect x="422" y="8" width="18" height="959" fill="#F9E9A8"/>
  <rect x="440" y="8" width="18" height="959" fill="#F4DF9C"/>
  <rect x="458" y="8" width="18" height="959" fill="#EDD38A"/>
  <rect x="476" y="8" width="18" height="959" fill="#F9E9A8"/>
  <rect x="494" y="8" width="18" height="959" fill="#F4DF9C"/>
  <rect x="512" y="8" width="18" height="959" fill="#EDD38A"/>
  <rect x="530" y="8" width="18" height="959" fill="#F9E9A8"/>
  <rect x="548" y="8" width="18" height="959" fill="#F4DF9C"/>
  <rect x="566" y="8" width="18" height="959" fill="#EDD38A"/>
  <rect x="584" y="8" width="18" height="959" fill="#F9E9A8"/>
  <rect x="602" y="8" width="18" height="959" fill="#F4DF9C"/>
  <rect x="620" y="8" width="12" height="959" fill="#EDD38A"/>

  <!-- ── Subtle cross-grain lines — natural wood grain variation (GRAIN_SPACING=38) ── -->
  <g stroke="rgb(145,92,18)" stroke-width="0.6" opacity="0.048">
    <line x1="9" y1="8"   x2="631" y2="8"/>
    <line x1="9" y1="57"  x2="631" y2="57"/>
    <line x1="9" y1="84"  x2="631" y2="84"/>
    <line x1="9" y1="133" x2="631" y2="133"/>
    <line x1="9" y1="160" x2="631" y2="160"/>
    <line x1="9" y1="209" x2="631" y2="209"/>
    <line x1="9" y1="236" x2="631" y2="236"/>
    <line x1="9" y1="285" x2="631" y2="285"/>
    <line x1="9" y1="312" x2="631" y2="312"/>
    <line x1="9" y1="361" x2="631" y2="361"/>
    <line x1="9" y1="388" x2="631" y2="388"/>
    <line x1="9" y1="437" x2="631" y2="437"/>
    <line x1="9" y1="464" x2="631" y2="464"/>
    <line x1="9" y1="513" x2="631" y2="513"/>
    <line x1="9" y1="540" x2="631" y2="540"/>
    <line x1="9" y1="589" x2="631" y2="589"/>
    <line x1="9" y1="616" x2="631" y2="616"/>
    <line x1="9" y1="665" x2="631" y2="665"/>
    <line x1="9" y1="692" x2="631" y2="692"/>
    <line x1="9" y1="741" x2="631" y2="741"/>
    <line x1="9" y1="768" x2="631" y2="768"/>
    <line x1="9" y1="817" x2="631" y2="817"/>
    <line x1="9" y1="844" x2="631" y2="844"/>
    <line x1="9" y1="893" x2="631" y2="893"/>
    <line x1="9" y1="920" x2="631" y2="920"/>
  </g>

  <!-- ── Staggered plank-end joints — natural board seaming (JOINT_SPACING=120) ── -->
  <g stroke="rgb(155,98,20)" stroke-width="1.0" opacity="0.168">
    <line x1="8"   y1="128" x2="632" y2="128"/>
    <line x1="80"  y1="248" x2="632" y2="248"/>
    <line x1="44"  y1="368" x2="632" y2="368"/>
    <line x1="116" y1="488" x2="632" y2="488"/>
    <line x1="26"  y1="608" x2="632" y2="608"/>
    <line x1="8"   y1="728" x2="632" y2="728"/>
    <line x1="80"  y1="848" x2="632" y2="848"/>
  </g>

  <!-- ── Court boundary — 6px WSF red #CC1500 (2" spec), centred on court edge ── -->
  <rect x="8" y="8" width="624" height="959" fill="none" stroke="#CC1500" stroke-width="6"/>

  <!-- ── Short line — 4.26m from front wall ── -->
  <line x1="8" y1="426" x2="632" y2="426" stroke="#CC1500" stroke-width="5"/>

  <!-- ── Half-court line — short line to back wall ── -->
  <line x1="320" y1="426" x2="320" y2="967" stroke="#CC1500" stroke-width="5"/>

  <!-- ── Left service box ── -->
  <rect x="8"   y="426" width="160" height="160" fill="none" stroke="#CC1500" stroke-width="5"/>

  <!-- ── Right service box ── -->
  <rect x="472" y="426" width="160" height="160" fill="none" stroke="#CC1500" stroke-width="5"/>

</svg>
